<svg xmlns="http://www.w3.org/2000/svg" width="17.822" height="17.822" viewBox="0 0 17.822 17.822">
  <path id="Icon_awesome-arrow-alt-circle-right" data-name="Icon awesome-arrow-alt-circle-right" d="M9.473.563A8.911,8.911,0,1,1,.563,9.473,8.909,8.909,0,0,1,9.473.563ZM5.305,11.054H9.473V13.6a.431.431,0,0,0,.737.305l4.107-4.128a.427.427,0,0,0,0-.607L10.21,5.039a.431.431,0,0,0-.737.305V7.892H5.305a.432.432,0,0,0-.431.431v2.3A.432.432,0,0,0,5.305,11.054Z" transform="translate(-0.563 -0.563)" fill="#e6101a"/>
</svg>
