<svg id="Group_2" data-name="Group 2" xmlns="http://www.w3.org/2000/svg" width="19.564" height="22.348" viewBox="0 0 19.564 22.348">
  <path id="Path_1" data-name="Path 1" d="M129.18,86.91l6.014-3.514-.045-3.231-8.791,5.206Z" transform="translate(-116.427 -73.865)"/>
  <path id="Path_2" data-name="Path 2" d="M130.477,56.417l-2.843-1.569-6.083,3.675V61.7Z" transform="translate(-111.997 -50.537)"/>
  <path id="Path_3" data-name="Path 3" d="M83.556,11.037V1.577L80.841,0V9.557Z" transform="translate(-74.487)"/>
  <path id="Path_4" data-name="Path 4" d="M42.736,1.147,40.012,2.729V8.864l2.724,1.485Z" transform="translate(-36.868 -1.057)"/>
  <path id="Path_5" data-name="Path 5" d="M40.012,197.32V202.2l2.724,1.638v-5.033Z" transform="translate(-36.868 -181.811)"/>
  <path id="Path_6" data-name="Path 6" d="M80.841,219.619v4.861l2.714-1.632.165-.1v-1.557l-.165-.09Z" transform="translate(-74.487 -202.357)"/>
  <path id="Path_7" data-name="Path 7" d="M22.388,113.539,5.78,104.485l-2.626,1.549,19.316,10.549Z" transform="translate(-2.907 -96.273)"/>
  <path id="Path_8" data-name="Path 8" d="M0,129.5v3.06l16.68,9.11,2.655-1.61Z" transform="translate(0 -119.323)"/>
</svg>
