<svg xmlns="http://www.w3.org/2000/svg" width="58.5" height="14.616" viewBox="0 0 58.5 14.616">
  <g id="Group_10" data-name="Group 10" transform="translate(-51.885 -253.014)">
    <path id="Path_10" data-name="Path 10" d="M51.885,267.684h8.272l7.319-6.973A6.4,6.4,0,0,1,72,258.7H94.5l5.63-5.566H72.081s-4.837-.2-7.754,2.457S51.885,267.684,51.885,267.684Z" transform="translate(0 -0.099)"/>
    <path id="Path_11" data-name="Path 11" d="M141.344,319.219H149l2.132-2.1a4.093,4.093,0,0,1,2.649-1.042h14.49l5.12-5.1H152.786a6.938,6.938,0,0,0-4.393,1.392C146.74,313.873,141.344,319.219,141.344,319.219Z" transform="translate(-79.699 -51.634)"/>
    <path id="Path_12" data-name="Path 12" d="M381.03,267.573h-9.059l14.521-14.559h9.059Z" transform="translate(-285.166)"/>
    <g id="Group_8" data-name="Group 8" transform="translate(99.598 265.861)">
      <path id="Path_13" data-name="Path 13" d="M489.79,372.539v-1.47h-.55v-.3h1.472v.3h-.548v1.47Z" transform="translate(-489.24 -370.77)"/>
      <path id="Path_14" data-name="Path 14" d="M504.9,372.539V370.77h.56l.336,1.207.332-1.207h.561v1.769h-.348v-1.393l-.368,1.393h-.36l-.366-1.393v1.393Z" transform="translate(-503.192 -370.77)"/>
    </g>
  </g>
</svg>
